<svg width="256" height="356" viewBox="0 0 256 356" fill="none" xmlns="http://www.w3.org/2000/svg">
  <defs>
    <linearGradient id="bg" x1="22" y1="18" x2="234" y2="338" gradientUnits="userSpaceOnUse">
      <stop stop-color="#121C42"/>
      <stop offset="0.5" stop-color="#1B2B60"/>
      <stop offset="1" stop-color="#0C1330"/>
    </linearGradient>
    <radialGradient id="glow" cx="0" cy="0" r="1" gradientUnits="userSpaceOnUse" gradientTransform="translate(128 116) rotate(90) scale(92)">
      <stop offset="0" stop-color="#FFF8DA"/>
      <stop offset="0.24" stop-color="#D6C2FF"/>
      <stop offset="0.6" stop-color="#7C67E7"/>
      <stop offset="1" stop-color="#1A2255"/>
    </radialGradient>
  </defs>
  <rect x="6" y="6" width="244" height="344" rx="28" fill="url(#bg)" stroke="#F1D487" stroke-opacity="0.55" stroke-width="12"/>
  <rect x="26" y="26" width="204" height="304" rx="20" stroke="#F1D487" stroke-opacity="0.18" stroke-width="2"/>
  <circle cx="128" cy="126" r="76" fill="url(#glow)"/>
  <circle cx="128" cy="126" r="74" stroke="#FFF2C8" stroke-opacity="0.55" stroke-width="3"/>
  <path d="M91 188H165L178 206H78L91 188Z" fill="#E6BC69"/>
  <path d="M100 206H156L170 246H86L100 206Z" fill="#B87937"/>
  <rect x="82" y="270" width="92" height="10" rx="5" fill="#F5DF9A" fill-opacity="0.7"/>
  <g opacity="0.8" fill="#FFF2C8">
    <path d="M53 74L57 86L69 90L57 94L53 106L49 94L37 90L49 86L53 74Z"/>
    <path d="M204 60L207 69L216 72L207 75L204 84L201 75L192 72L201 69L204 60Z"/>
    <path d="M194 262L197 271L206 274L197 277L194 286L191 277L182 274L191 271L194 262Z"/>
    <path d="M61 248L64 257L73 260L64 263L61 272L58 263L49 260L58 257L61 248Z"/>
  </g>
</svg>
